<svg height="460" width="1120.64" xmlns="http://www.w3.org/2000/svg"><defs><style type="text/css">text{font-family:arial;font-size:16px}g.anonymous&gt;text{font-style:italic}g.parent&gt;rect{fill:none;stroke:gray}g.item&gt;rect{fill:lightgray}g.item&gt;text{text-anchor:middle}g.dependency&gt;text{fill:white;text-anchor:middle}</style></defs><symbol id="down-arrow" preserveAspectRatio="xMidYMax slice" viewBox="0,0,1,1"><polygon fill="darkgreen" points="0,0.85 0,0 1,0 1,0.85 0.5,1"></polygon></symbol><symbol id="right-arrow" preserveAspectRatio="xMaxYMid slice" viewBox="0,0,1,1"><polygon fill="darkred" points="0.85,0 0,0 0,1 0.85,1 1,0.5"></polygon></symbol><symbol id="up-arrow" preserveAspectRatio="xMidYMin slice" viewBox="0,0,1,1"><polygon fill="darkred" points="0,0.15 0,1 1,1 1,0.15 0.5,0"></polygon></symbol><g class="item"><rect height="64" width="87.68"></rect><text x="43.84" y="25.76">javascript</text><g class="dependency"><use href="#down-arrow" height="24" width="27.92" x="29.88" y="34"></use><text x="43.84" y="51.76">58</text></g></g><g class="dependency"><use href="#down-arrow" height="24" width="27.92" x="29.88" y="64"></use><text x="43.84" y="81.76">12</text></g><g class="item"><rect height="64" width="174.24" y="103"></rect><text x="87.12" y="128.76">renderer-test-harness</text><g class="dependency"><use href="#down-arrow" height="24" width="36.88" x="59.2" y="137"></use><text x="77.64" y="154.76">249</text></g><g class="dependency"><use href="#up-arrow" height="24" width="18.96" x="100.08" y="137"></use><text x="109.56" y="154.76">4</text></g></g><g class="dependency"><use href="#down-arrow" height="24" width="18.96" x="77.64" y="167"></use><text x="87.12" y="184.76">9</text></g><g class="dependency"><use href="#down-arrow" height="24" width="18.96" x="67.32" y="206"></use><text x="76.8" y="223.76">1</text></g><g class="item"><rect height="64" width="153.6" y="230"></rect><text x="76.8" y="255.76">javascript-analyzer</text><g class="dependency"><use href="#down-arrow" height="24" width="36.88" x="48.88" y="264"></use><text x="67.32" y="281.76">250</text></g><g class="dependency"><use href="#up-arrow" height="24" width="18.96" x="89.76" y="264"></use><text x="99.24" y="281.76">4</text></g></g><g class="dependency"><use href="#down-arrow" height="24" width="18.96" x="67.32" y="294"></use><text x="76.8" y="311.76">8</text></g><g class="dependency"><use href="#down-arrow" height="24" width="27.92" x="203.84" y="206"></use><text x="217.8" y="223.76">10</text></g><g class="item"><rect height="64" width="98.4" x="168.6" y="230"></rect><text x="217.8" y="255.76">processors</text><g class="dependency"><use href="#down-arrow" height="24" width="36.88" x="185.4" y="264"></use><text x="203.84" y="281.76">377</text></g><g class="dependency"><use href="#up-arrow" height="24" width="27.92" x="226.28" y="264"></use><text x="240.24" y="281.76">11</text></g></g><g class="dependency"><use href="#down-arrow" height="24" width="27.92" x="203.84" y="294"></use><text x="217.8" y="311.76">18</text></g><g class="dependency"><use href="#down-arrow" height="24" width="18.96" x="323.42" y="206"></use><text x="332.9" y="223.76">3</text></g><g class="item"><rect height="64" width="101.8" x="282" y="230"></rect><text x="332.9" y="255.76">renderer</text><g class="dependency"><use href="#down-arrow" height="24" width="36.88" x="296" y="264"></use><text x="314.44" y="281.76">269</text></g><g class="dependency"><use href="#up-arrow" height="24" width="18.96" x="336.88" y="264"></use><text x="346.36" y="281.76">1</text></g><g class="dependency"><use href="#right-arrow" height="24" width="17.96" x="359.84" y="264"></use><text x="367.32" y="281.76">2</text></g></g><g class="dependency"><use href="#down-arrow" height="24" width="18.96" x="323.42" y="294"></use><text x="332.9" y="311.76">8</text></g><g class="dependency"><use href="#down-arrow" height="24" width="18.96" x="125.16" y="333"></use><text x="134.64" y="350.76">4</text></g><g class="item"><rect height="64" width="269.28" y="357"></rect><text x="134.64" y="382.76">call-with-process-standard-streams</text><g class="dependency"><use href="#down-arrow" height="24" width="18.96" x="125.16" y="391"></use><text x="134.64" y="408.76">5</text></g></g><g class="dependency"><use href="#down-arrow" height="24" width="27.92" x="374.08" y="333"></use><text x="388.04" y="350.76">16</text></g><g class="item"><rect height="64" width="207.52" x="284.28" y="357"></rect><text x="388.04" y="382.76">dependency-and-structure</text><g class="dependency"><use href="#down-arrow" height="24" width="36.88" x="360.12" y="391"></use><text x="378.56" y="408.76">383</text></g><g class="dependency"><use href="#up-arrow" height="24" width="18.96" x="401" y="391"></use><text x="410.48" y="408.76">9</text></g></g><g class="dependency"><use href="#down-arrow" height="24" width="18.96" x="598.04" y="333"></use><text x="607.52" y="350.76">5</text></g><g class="item"><rect height="64" width="201.44" x="506.8" y="357"></rect><text x="607.52" y="382.76">run-tests-from-file-system</text><g class="dependency"><use href="#down-arrow" height="24" width="27.92" x="584.08" y="391"></use><text x="598.04" y="408.76">29</text></g><g class="dependency"><use href="#up-arrow" height="24" width="18.96" x="616" y="391"></use><text x="625.48" y="408.76">3</text></g></g><g class="dependency"><use href="#down-arrow" height="24" width="18.96" x="776.4" y="333"></use><text x="785.88" y="350.76">5</text></g><g class="item"><rect height="64" width="125.28" x="723.24" y="357"></rect><text x="785.88" y="382.76">test-harnesses</text><g class="dependency"><use href="#down-arrow" height="24" width="27.92" x="771.92" y="391"></use><text x="785.88" y="408.76">61</text></g></g><g class="dependency"><use href="#down-arrow" height="24" width="27.92" x="978.12" y="333"></use><text x="992.08" y="350.76">11</text></g><g class="item"><rect height="40" width="257.12" x="863.52" y="357"></rect><text x="992.08" y="382.76">test-harnesses-processor-plugins</text></g><g class="dependency"><use href="#down-arrow" height="24" width="45.84" x="514.46" y="436"></use><text x="537.38" y="453.76">1736</text></g><g class="dependency"><use href="#up-arrow" height="24" width="27.92" x="564.3" y="436"></use><text x="578.26" y="453.76">32</text></g><g class="dependency"><use href="#right-arrow" height="24" width="17.96" x="596.22" y="436"></use><text x="603.7" y="453.76">2</text></g></svg>