<svg height="484" width="1120.64" xmlns="http://www.w3.org/2000/svg"><defs><style type="text/css">text{font-family:arial;font-size:16px}g.anonymous&gt;text{font-style:italic}g.parent&gt;rect{fill:none;stroke:gray}g.item&gt;rect{fill:lightgray}g.item&gt;text{text-anchor:middle}g.dependency&gt;text{fill:white;text-anchor:middle}</style></defs><symbol id="down-arrow" preserveAspectRatio="xMidYMax slice" viewBox="0,0,1,1"><polygon fill="darkgreen" points="0,0.85 0,0 1,0 1,0.85 0.5,1"></polygon></symbol><symbol id="right-arrow" preserveAspectRatio="xMaxYMid slice" viewBox="0,0,1,1"><polygon fill="darkred" points="0.85,0 0,0 0,1 0.85,1 1,0.5"></polygon></symbol><symbol id="up-arrow" preserveAspectRatio="xMidYMin slice" viewBox="0,0,1,1"><polygon fill="darkred" points="0,0.15 0,1 1,1 1,0.15 0.5,0"></polygon></symbol><g class="item"><rect height="64" width="87.68"></rect><text x="43.84" y="25.76">javascript</text><g class="dependency"><use href="#down-arrow" height="24" width="27.92" x="29.88" y="34"></use><text x="43.84" y="51.76">88</text></g></g><g class="dependency"><use href="#down-arrow" height="24" width="27.92" x="29.88" y="64"></use><text x="43.84" y="81.76">14</text></g><g class="dependency"><use href="#down-arrow" height="24" width="18.96" x="77.64" y="103"></use><text x="87.12" y="120.76">1</text></g><g class="item"><rect height="64" width="174.24" y="127"></rect><text x="87.12" y="152.76">renderer-test-harness</text><g class="dependency"><use href="#down-arrow" height="24" width="36.88" x="59.2" y="161"></use><text x="77.64" y="178.76">249</text></g><g class="dependency"><use href="#up-arrow" height="24" width="18.96" x="100.08" y="161"></use><text x="109.56" y="178.76">4</text></g></g><g class="dependency"><use href="#down-arrow" height="24" width="27.92" x="73.16" y="191"></use><text x="87.12" y="208.76">12</text></g><g class="dependency"><use href="#down-arrow" height="24" width="18.96" x="67.32" y="230"></use><text x="76.8" y="247.76">1</text></g><g class="item"><rect height="64" width="153.6" y="254"></rect><text x="76.8" y="279.76">javascript-analyzer</text><g class="dependency"><use href="#down-arrow" height="24" width="36.88" x="48.88" y="288"></use><text x="67.32" y="305.76">250</text></g><g class="dependency"><use href="#up-arrow" height="24" width="18.96" x="89.76" y="288"></use><text x="99.24" y="305.76">4</text></g></g><g class="dependency"><use href="#down-arrow" height="24" width="27.92" x="62.84" y="318"></use><text x="76.8" y="335.76">12</text></g><g class="dependency"><use href="#down-arrow" height="24" width="27.92" x="203.84" y="230"></use><text x="217.8" y="247.76">11</text></g><g class="item"><rect height="64" width="98.4" x="168.6" y="254"></rect><text x="217.8" y="279.76">processors</text><g class="dependency"><use href="#down-arrow" height="24" width="36.88" x="185.4" y="288"></use><text x="203.84" y="305.76">404</text></g><g class="dependency"><use href="#up-arrow" height="24" width="27.92" x="226.28" y="288"></use><text x="240.24" y="305.76">15</text></g></g><g class="dependency"><use href="#down-arrow" height="24" width="27.92" x="203.84" y="318"></use><text x="217.8" y="335.76">18</text></g><g class="dependency"><use href="#down-arrow" height="24" width="18.96" x="312.84" y="230"></use><text x="322.32" y="247.76">3</text></g><g class="item"><rect height="64" width="80.64" x="282" y="254"></rect><text x="322.32" y="279.76">renderer</text><g class="dependency"><use href="#down-arrow" height="24" width="36.88" x="294.4" y="288"></use><text x="312.84" y="305.76">271</text></g><g class="dependency"><use href="#up-arrow" height="24" width="18.96" x="335.28" y="288"></use><text x="344.76" y="305.76">1</text></g></g><g class="dependency"><use href="#down-arrow" height="24" width="18.96" x="312.84" y="318"></use><text x="322.32" y="335.76">9</text></g><g class="dependency"><use href="#down-arrow" height="24" width="18.96" x="125.16" y="357"></use><text x="134.64" y="374.76">4</text></g><g class="item"><rect height="64" width="269.28" y="381"></rect><text x="134.64" y="406.76">call-with-process-standard-streams</text><g class="dependency"><use href="#down-arrow" height="24" width="18.96" x="125.16" y="415"></use><text x="134.64" y="432.76">5</text></g></g><g class="dependency"><use href="#down-arrow" height="24" width="27.92" x="374.08" y="357"></use><text x="388.04" y="374.76">17</text></g><g class="item"><rect height="64" width="207.52" x="284.28" y="381"></rect><text x="388.04" y="406.76">dependency-and-structure</text><g class="dependency"><use href="#down-arrow" height="24" width="36.88" x="360.12" y="415"></use><text x="378.56" y="432.76">383</text></g><g class="dependency"><use href="#up-arrow" height="24" width="18.96" x="401" y="415"></use><text x="410.48" y="432.76">9</text></g></g><g class="dependency"><use href="#down-arrow" height="24" width="18.96" x="598.04" y="357"></use><text x="607.52" y="374.76">5</text></g><g class="item"><rect height="64" width="201.44" x="506.8" y="381"></rect><text x="607.52" y="406.76">run-tests-from-file-system</text><g class="dependency"><use href="#down-arrow" height="24" width="27.92" x="584.08" y="415"></use><text x="598.04" y="432.76">29</text></g><g class="dependency"><use href="#up-arrow" height="24" width="18.96" x="616" y="415"></use><text x="625.48" y="432.76">3</text></g></g><g class="dependency"><use href="#down-arrow" height="24" width="27.92" x="771.92" y="357"></use><text x="785.88" y="374.76">12</text></g><g class="item"><rect height="64" width="125.28" x="723.24" y="381"></rect><text x="785.88" y="406.76">test-harnesses</text><g class="dependency"><use href="#down-arrow" height="24" width="27.92" x="771.92" y="415"></use><text x="785.88" y="432.76">62</text></g></g><g class="dependency"><use href="#down-arrow" height="24" width="27.92" x="978.12" y="357"></use><text x="992.08" y="374.76">11</text></g><g class="item"><rect height="40" width="257.12" x="863.52" y="381"></rect><text x="992.08" y="406.76">test-harnesses-processor-plugins</text></g><g class="dependency"><use href="#down-arrow" height="24" width="45.84" x="523.44" y="460"></use><text x="546.36" y="477.76">1806</text></g><g class="dependency"><use href="#up-arrow" height="24" width="27.92" x="573.28" y="460"></use><text x="587.24" y="477.76">36</text></g></svg>