<svg height="20" version="1.1" viewBox="0 0 45 16" width="56" xmlns="http://www.w3.org/2000/svg"><path d="M 18.53 12.03 h -0.02 c 0.009 0 0.015 0.01 0.024 0.011 h 0.006 l -0.01 -0.01 Z m 0.004 0.011 c -0.093 0.001 -0.327 0.05 -0.574 0.05 c -0.78 0 -1.05 -0.36 -1.05 -0.83 V 8.13 h 1.59 c 0.09 0 0.16 -0.08 0.16 -0.19 v -1.7 c 0 -0.09 -0.08 -0.17 -0.16 -0.17 h -1.59 V 3.96 c 0 -0.08 -0.05 -0.13 -0.14 -0.13 h -2.16 c -0.09 0 -0.14 0.05 -0.14 0.13 v 2.17 s -1.09 0.27 -1.16 0.28 c -0.08 0.02 -0.13 0.09 -0.13 0.17 v 1.36 c 0 0.11 0.08 0.19 0.17 0.19 h 1.11 v 3.28 c 0 2.44 1.7 2.69 2.86 2.69 c 0.53 0 1.17 -0.17 1.27 -0.22 c 0.06 -0.02 0.09 -0.09 0.09 -0.16 v -1.5 a 0.177 0.177 0 0 0 -0.146 -0.18 Z m 23.696 -2.2 c 0 -1.81 -0.73 -2.05 -1.5 -1.97 c -0.6 0.04 -1.08 0.34 -1.08 0.34 v 3.52 s 0.49 0.34 1.22 0.36 c 1.03 0.03 1.36 -0.34 1.36 -2.25 Z m 2.43 -0.16 c 0 3.43 -1.11 4.41 -3.05 4.41 c -1.64 0 -2.52 -0.83 -2.52 -0.83 s -0.04 0.46 -0.09 0.52 c -0.03 0.06 -0.08 0.08 -0.14 0.08 h -1.48 c -0.1 0 -0.19 -0.08 -0.19 -0.17 l 0.02 -11.11 c 0 -0.09 0.08 -0.17 0.17 -0.17 h 2.13 c 0.09 0 0.17 0.08 0.17 0.17 v 3.77 s 0.82 -0.53 2.02 -0.53 l -0.01 -0.02 c 1.2 0 2.97 0.45 2.97 3.88 Z m -8.72 -3.61 h -2.1 c -0.11 0 -0.17 0.08 -0.17 0.19 v 5.44 s -0.55 0.39 -1.3 0.39 s -0.97 -0.34 -0.97 -1.09 V 6.25 c 0 -0.09 -0.08 -0.17 -0.17 -0.17 h -2.14 c -0.09 0 -0.17 0.08 -0.17 0.17 v 5.11 c 0 2.2 1.23 2.75 2.92 2.75 c 1.39 0 2.52 -0.77 2.52 -0.77 s 0.05 0.39 0.08 0.45 c 0.02 0.05 0.09 0.09 0.16 0.09 h 1.34 c 0.11 0 0.17 -0.08 0.17 -0.17 l 0.02 -7.47 c 0 -0.09 -0.08 -0.17 -0.19 -0.17 Z m -23.7 -0.01 h -2.13 c -0.09 0 -0.17 0.09 -0.17 0.2 v 7.34 c 0 0.2 0.13 0.27 0.3 0.27 h 1.92 c 0.2 0 0.25 -0.09 0.25 -0.27 V 6.23 c 0 -0.09 -0.08 -0.17 -0.17 -0.17 Z m -1.05 -3.38 c -0.77 0 -1.38 0.61 -1.38 1.38 c 0 0.77 0.61 1.38 1.38 1.38 c 0.75 0 1.36 -0.61 1.36 -1.38 c 0 -0.77 -0.61 -1.38 -1.36 -1.38 Z m 16.49 -0.25 h -2.11 c -0.09 0 -0.17 0.08 -0.17 0.17 v 4.09 h -3.31 V 2.6 c 0 -0.09 -0.08 -0.17 -0.17 -0.17 h -2.13 c -0.09 0 -0.17 0.08 -0.17 0.17 v 11.11 c 0 0.09 0.09 0.17 0.17 0.17 h 2.13 c 0.09 0 0.17 -0.08 0.17 -0.17 V 8.96 h 3.31 l -0.02 4.75 c 0 0.09 0.08 0.17 0.17 0.17 h 2.13 c 0.09 0 0.17 -0.08 0.17 -0.17 V 2.6 c 0 -0.09 -0.08 -0.17 -0.17 -0.17 Z M 8.81 7.35 v 5.74 c 0 0.04 -0.01 0.11 -0.06 0.13 c 0 0 -1.25 0.89 -3.31 0.89 c -2.49 0 -5.44 -0.78 -5.44 -5.92 S 2.58 1.99 5.1 2 c 2.18 0 3.06 0.49 3.2 0.58 c 0.04 0.05 0.06 0.09 0.06 0.14 L 7.94 4.5 c 0 0.09 -0.09 0.2 -0.2 0.17 c -0.36 -0.11 -0.9 -0.33 -2.17 -0.33 c -1.47 0 -3.05 0.42 -3.05 3.73 s 1.5 3.7 2.58 3.7 c 0.92 0 1.25 -0.11 1.25 -0.11 v -2.3 H 4.88 c -0.11 0 -0.19 -0.08 -0.19 -0.17 V 7.35 c 0 -0.09 0.08 -0.17 0.19 -0.17 h 3.74 c 0.11 0 0.19 0.08 0.19 0.17 Z" fill-rule="evenodd" /></svg>