<svg height="193" width="81.12" xmlns="http://www.w3.org/2000/svg"><defs><style type="text/css">text{font-family:arial;font-size:16px}g.anonymous&gt;text{font-style:italic}g.parent&gt;rect{fill:none;stroke:gray}g.item&gt;rect{fill:lightgray}g.item&gt;text{text-anchor:middle}g.dependency&gt;text{fill:white;text-anchor:middle}</style></defs><symbol id="down-arrow" preserveAspectRatio="xMidYMax slice" viewBox="0,0,1,1"><polygon fill="darkgreen" points="0,0.85 0,0 1,0 1,0.85 0.5,1"></polygon></symbol><symbol id="right-arrow" preserveAspectRatio="xMaxYMid slice" viewBox="0,0,1,1"><polygon fill="darkred" points="0.85,0 0,0 0,1 0.85,1 1,0.5"></polygon></symbol><symbol id="up-arrow" preserveAspectRatio="xMidYMin slice" viewBox="0,0,1,1"><polygon fill="darkred" points="0,0.15 0,1 1,1 1,0.15 0.5,0"></polygon></symbol><g class="parent"><rect height="193" width="81.12"></rect><text x="10" y="25.76">parent</text><g class="item"><rect height="40" width="61.12" x="10" y="40"></rect><text x="40.56" y="65.76">upper</text></g><g class="dependency"><use href="#down-arrow" height="24" width="18.96" x="31.08" y="80"></use><text x="40.56" y="97.76">1</text></g><g class="dependency"><use href="#down-arrow" height="24" width="18.96" x="29.64" y="119"></use><text x="39.12" y="136.76">1</text></g><g class="item"><rect height="40" width="58.24" x="10" y="143"></rect><text x="39.12" y="168.76">lower</text></g></g></svg>