<svg height="215.5" width="330.5" xmlns="http://www.w3.org/2000/svg">
	<defs><style>
		polyline,
		rect {
			fill: none;
			stroke: black;
		}

		text {
			font-family: arial, sans-serif;
			font-size: 16px;
			text-anchor: middle;
		}
		
		.indirect polyline {
			stroke-dasharray: 2;
		}

		.indirect use {
			fill: transparent;
			stroke: black;
		}

		.key text {
			text-anchor: start;
		}
	</style></defs>
	<symbol id="arrow-head-down">
		<polygon points="0,0 15,0 7.5,7.5"/>
	</symbol>
	<symbol id="down-arrow">
		<polyline points="7.5,0 7.5,12.5"/>
		<use href="#arrow-head-down" y="12.5"/>
	</symbol>
	<symbol id="item" overflow="visible">
		<rect height="25" width="40"/>
	</symbol>
	<symbol id="stack" overflow="visible">
		<use href="#item"/>
		<g transform="translate(0,25)">
			<use href="#down-arrow" x="12.5"/>
			<use href="#item" y="20"/>
		</g>
	</symbol>
	<symbol id="grouped-stack" overflow="visible">
		<rect height="90" width="60"/>
		<use href="#stack" transform="translate(9.5,9.5)"/>
	</symbol>
	<g transform="translate(0.5,0)">
		<text x="35" y="16">stack</text>
		<g transform="translate(0,25)">
			<rect height="90" width="60"/>
			<g transform="translate(10,10)">
				<use href="#stack" x="-0.5" y="-0.5"/>
				<g transform="translate(12.5,70)">
					<polyline points="7.5,0 7.5,17.5"/>
					<use href="#arrow-head-down" y="17.5"/>
				</g>
			</g>
			<use href="#item" x="10" y="105"/>
		</g>
	</g>
	<g transform="translate(90,0)">
		<text x="65" y="16">independent</text>
		<g transform="translate(-0.5,-0.5)">
			<use href="#grouped-stack" transform="translate(0,25)"/>
			<use href="#grouped-stack" transform="translate(70,25)"/>
		</g>
	</g>
	<g transform="translate(250,0)">
		<text x="40" y="16">nested</text>
		<g transform="translate(0,25)">
			<rect height="25" width="80"/>
			<g transform="translate(32.5,25)">
				<polyline points="7.5,0 7.5,17.5"/>
				<use href="#arrow-head-down" y="17.5"/>
			</g>
			<g transform="translate(0,35)">
				<rect width="80" height="155"/>
				<rect height="25" width="60" x="10" y="15"/>
				<g transform="translate(32.5,40)">
					<polyline points="7.5,0 7.5,17.5"/>
					<use href="#arrow-head-down" y="17.5"/>
				</g>
				<g transform="translate(10,50)">
					<rect height="95" width="60"/>
					<use href="#stack" transform="translate(9.5,14.5)"/>
				</g>
			</g>
		</g>
	</g>
</svg>