<svg
	height="474.92001"
	viewBox="0 0 3417.3201 474.92001"
	width="3417.3201"
	xmlns="http://www.w3.org/2000/svg">
	<style type="text/css">
		path {
			fill-opacity:1;
			fill-rule:nonzero;
			fill:#ffffff;
			stroke:none;
		}
	</style>
	<g transform="matrix(1.3333333,0,0,-1.3333333,0,474.92)">
		<g transform="scale(0.1)">
			<path d="m 1863.2,2250.3 c 0,314.6 -212.99,585.63 -542.06,585.63 H 783.977 V 1664.84 h 537.163 c 329.07,0 542.06,270.86 542.06,585.46 z M 0,3474.71 h 1417.88 c 750.16,0 1234.17,-566.28 1234.17,-1224.41 0,-658.13 -484.01,-1224.23 -1234.17,-1224.23 H 783.977 V 87.1406 L 0,87.1406 V 3474.71" />
			<path d="M 4921.7,2506.86 4505.49,1113.04 h 822.66 z M 5652.51,87.1406 5521.97,498.48 H 4316.9 L 4186.18,87.1406 h -837.3 L 4558.82,3474.71 h 721.05 L 6504.29,87.1406 h -851.78" />
			<path d="M 7820.55,2797.23 H 7056.1 v 677.48 H 9374.03 V 2797.23 H 8604.52 V 87.1406 H 7820.55 V 2797.23" />
			<path d="m 12456.8,2250.3 c 0,314.6 -213,585.63 -542.1,585.63 h -537.2 V 1664.84 h 537.2 c 329.1,0 542.1,270.86 542.1,585.46 z m -1863.2,1224.41 h 1422.9 c 750,0 1234,-566.28 1234,-1224.41 0,-474.25 -251.7,-895.17 -672.8,-1093.69 L 13255.4,87.1406 h -909.8 l -600.3,938.9294 h -367.8 V 87.1406 h -783.9 V 3474.71" />
			<g transform="scale(1.02134)">
				<path d="M 15044.4,2786.07 V 2032.8 H 16300 V 1430.92 H 15044.4 V 701.386 H 16300 V 85.3201 H 14276.8 V 3402.12 H 16300 v -616.05 h -1255.6" />
			</g>
			<g transform="scale(1.31942)">
				<path d="m 15694.9,1349.78 c 0,421.79 -286.2,814.25 -751.9,814.25 -469.6,0 -752,-392.46 -752,-814.25 0,-421.791 282.4,-814.26 752,-814.26 465.7,0 751.9,392.469 751.9,814.26 z m -2112.8,0 c 0,704.22 506.2,1349.78 1360.9,1349.78 850.8,0 1357,-645.56 1357,-1349.78 C 16300,645.562 15793.8,0 14943,0 14088.3,0 13582.1,645.562 13582.1,1349.78" />
			</g>
			<g transform="scale(1.57239)">
				<path d="M 15804.5,806.405 V 2209.83 H 16300 V 55.4193 h -520.1 L 15004.2,1440.45 V 55.4193 h -498.6 V 2209.83 h 520.1 l 778.8,-1403.425" />
			</g>
		</g>
	</g>
</svg>