<svg height="182" width="295.64" xmlns="http://www.w3.org/2000/svg"><defs><style type="text/css">text{font-family:arial;font-size:16px}g.anonymous&gt;text{font-style:italic}g.parent&gt;rect{fill:none;stroke:gray}g.item&gt;rect{fill:lightgray}g.item&gt;text{text-anchor:middle}g.dependency&gt;text{fill:white;text-anchor:middle}</style></defs><symbol id="down-arrow" preserveAspectRatio="xMidYMax slice" viewBox="0,0,1,1"><polygon fill="darkgreen" points="0,0.85 0,0 1,0 1,0.85 0.5,1"></polygon></symbol><symbol id="right-arrow" preserveAspectRatio="xMaxYMid slice" viewBox="0,0,1,1"><polygon fill="darkred" points="0.85,0 0,0 0,1 0.85,1 1,0.5"></polygon></symbol><symbol id="up-arrow" preserveAspectRatio="xMidYMin slice" viewBox="0,0,1,1"><polygon fill="darkred" points="0,0.15 0,1 1,1 1,0.15 0.5,0"></polygon></symbol><containerElement id="upper first" level="same" relationship="dependents"><g class="dependency"><use href="#right-arrow" height="24" width="17.96" y="8"></use><text x="7.48" y="25.76">1</text></g></containerElement><g class="item"><rect height="40" width="91.36" x="17.96"></rect><text x="63.64" y="25.76">upper first</text></g><containerElement id="upper first" level="same" relationship="dependsUpon"><g class="dependency"><use href="#right-arrow" height="24" width="17.96" x="109.32" y="8"></use><text x="116.8" y="25.76">1</text></g></containerElement><containerElement id="upper first" level="below" relationship="dependsUpon"><g class="dependency"><use href="#down-arrow" height="24" width="18.96" x="42.68" y="40"></use><text x="52.16" y="57.76">2</text></g></containerElement><containerElement id="upper first" level="below" relationship="dependents"><g class="dependency"><use href="#up-arrow" height="24" width="18.96" x="65.64" y="40"></use><text x="75.12" y="57.76">2</text></g></containerElement><containerElement id="upper second" level="same" relationship="dependents"><g class="dependency"><use href="#right-arrow" height="24" width="17.96" x="142.28" y="8"></use><text x="149.76" y="25.76">1</text></g></containerElement><g class="item"><rect height="40" width="117.44" x="160.24"></rect><text x="218.96" y="25.76">upper second</text></g><containerElement id="upper second" level="same" relationship="dependsUpon"><g class="dependency"><use href="#right-arrow" height="24" width="17.96" x="277.68" y="8"></use><text x="285.16" y="25.76">1</text></g></containerElement><containerElement id="upper second" level="below" relationship="dependsUpon"><g class="dependency"><use href="#down-arrow" height="24" width="18.96" x="198" y="40"></use><text x="207.48" y="57.76">2</text></g></containerElement><containerElement id="upper second" level="below" relationship="dependents"><g class="dependency"><use href="#up-arrow" height="24" width="18.96" x="220.96" y="40"></use><text x="230.44" y="57.76">2</text></g></containerElement><containerElement id="lower first" level="above" relationship="dependents"><g class="dependency"><use href="#down-arrow" height="24" width="18.96" x="41.24" y="79"></use><text x="50.72" y="96.76">2</text></g></containerElement><containerElement id="lower first" level="above" relationship="dependsUpon"><g class="dependency"><use href="#up-arrow" height="24" width="18.96" x="64.2" y="79"></use><text x="73.68" y="96.76">2</text></g></containerElement><containerElement id="lower first" level="same" relationship="dependents"><g class="dependency"><use href="#right-arrow" height="24" width="17.96" y="111"></use><text x="7.48" y="128.76">1</text></g></containerElement><g class="item"><rect height="40" width="88.48" x="17.96" y="103"></rect><text x="62.2" y="128.76">lower first</text></g><containerElement id="lower first" level="same" relationship="dependsUpon"><g class="dependency"><use href="#right-arrow" height="24" width="17.96" x="106.44" y="111"></use><text x="113.92" y="128.76">1</text></g></containerElement><containerElement id="lower second" level="above" relationship="dependents"><g class="dependency"><use href="#down-arrow" height="24" width="18.96" x="193.68" y="79"></use><text x="203.16" y="96.76">2</text></g></containerElement><containerElement id="lower second" level="above" relationship="dependsUpon"><g class="dependency"><use href="#up-arrow" height="24" width="18.96" x="216.64" y="79"></use><text x="226.12" y="96.76">2</text></g></containerElement><containerElement id="lower second" level="same" relationship="dependents"><g class="dependency"><use href="#right-arrow" height="24" width="17.96" x="139.4" y="111"></use><text x="146.88" y="128.76">1</text></g></containerElement><g class="item"><rect height="40" width="114.56" x="157.36" y="103"></rect><text x="214.64" y="128.76">lower second</text></g><containerElement id="lower second" level="same" relationship="dependsUpon"><g class="dependency"><use href="#right-arrow" height="24" width="17.96" x="271.92" y="111"></use><text x="279.4" y="128.76">1</text></g></containerElement><g class="dependency"><use href="#down-arrow" height="24" width="18.96" x="119.88" y="158"></use><text x="129.36" y="175.76">4</text></g><g class="dependency"><use href="#up-arrow" height="24" width="18.96" x="142.84" y="158"></use><text x="152.32" y="175.76">4</text></g><g class="dependency"><use href="#right-arrow" height="24" width="17.96" x="165.8" y="158"></use><text x="173.28" y="175.76">4</text></g></svg>