<!-- created by Eunice (https://devsnicket.com/eunice) version 7.14.0 on 2020-08-19T19:33:17.664Z-->
<svg height="473" width="626" xmlns="http://www.w3.org/2000/svg"><defs><style type="text/css">text{font-family:arial;font-size:16px}g.anonymous&gt;text{font-style:italic}g.item&gt;rect{fill:lightgray}g.item&gt;text{text-anchor:middle}g.dependency&gt;text{fill:white;text-anchor:middle}</style></defs><symbol id="down-arrow" preserveAspectRatio="xMidYMax slice" viewBox="0,0,1,1"><polygon fill="darkgreen" points="0,0.85 0,0 1,0 1,0.85 0.5,1"></polygon></symbol><symbol id="right-arrow" preserveAspectRatio="xMaxYMid slice" viewBox="0,0,1,1"><polygon fill="darkred" points="0.85,0 0,0 0,1 0.85,1 1,0.5"></polygon></symbol><symbol id="up-arrow" preserveAspectRatio="xMidYMin slice" viewBox="0,0,1,1"><polygon fill="darkred" points="0,0.15 0,1 1,1 1,0.15 0.5,0"></polygon></symbol><g class="item"><rect height="64" width="87.68"></rect><text x="43.84" y="25.76">javascript</text><g class="dependency"><use href="#down-arrow" height="24" width="36.88" x="15.92" y="34"></use><text x="34.36" y="51.76">341</text></g><g class="dependency"><use href="#up-arrow" height="24" width="18.96" x="56.8" y="34"></use><text x="66.28" y="51.76">6</text></g></g><g class="dependency"><use href="#down-arrow" height="24" width="36.88" x="25.4" y="64"></use><text x="43.84" y="81.76">110</text></g><g class="dependency"><use href="#down-arrow" height="24" width="18.96" x="67.32" y="103"></use><text x="76.8" y="120.76">3</text></g><g class="item"><rect height="64" width="153.6" y="127"></rect><text x="76.8" y="152.76">javascript-analyzer</text><g class="dependency"><use href="#down-arrow" height="24" width="36.88" x="48.88" y="161"></use><text x="67.32" y="178.76">596</text></g><g class="dependency"><use href="#up-arrow" height="24" width="18.96" x="89.76" y="161"></use><text x="99.24" y="178.76">5</text></g></g><g class="dependency"><use href="#down-arrow" height="24" width="27.92" x="62.84" y="191"></use><text x="76.8" y="208.76">43</text></g><g class="dependency"><use href="#down-arrow" height="24" width="27.92" x="214.5" y="103"></use><text x="228.46" y="120.76">15</text></g><g class="item"><rect height="64" width="119.72" x="168.6" y="127"></rect><text x="228.46" y="152.76">post analysis</text><g class="dependency"><use href="#down-arrow" height="24" width="45.84" x="182.6" y="161"></use><text x="205.52" y="178.76">1240</text></g><g class="dependency"><use href="#up-arrow" height="24" width="27.92" x="232.44" y="161"></use><text x="246.4" y="178.76">19</text></g><g class="dependency"><use href="#right-arrow" height="24" width="17.96" x="264.36" y="161"></use><text x="271.84" y="178.76">4</text></g></g><g class="dependency"><use href="#down-arrow" height="24" width="36.88" x="210.02" y="191"></use><text x="228.46" y="208.76">189</text></g><g class="dependency"><use href="#down-arrow" height="24" width="18.96" x="343.04" y="103"></use><text x="352.52" y="120.76">8</text></g><g class="item"><rect height="64" width="98.4" x="303.32" y="127"></rect><text x="352.52" y="152.76">processors</text><g class="dependency"><use href="#down-arrow" height="24" width="36.88" x="324.6" y="161"></use><text x="343.04" y="178.76">263</text></g><g class="dependency"><use href="#up-arrow" height="24" width="18.96" x="365.48" y="161"></use><text x="374.96" y="178.76">6</text></g></g><g class="dependency"><use href="#down-arrow" height="24" width="27.92" x="338.56" y="191"></use><text x="352.52" y="208.76">57</text></g><g class="dependency"><use href="#down-arrow" height="24" width="18.96" x="125.16" y="230"></use><text x="134.64" y="247.76">2</text></g><g class="item"><rect height="64" width="269.28" y="254"></rect><text x="134.64" y="279.76">call-with-process-standard-streams</text><g class="dependency"><use href="#down-arrow" height="24" width="18.96" x="125.16" y="288"></use><text x="134.64" y="305.76">5</text></g></g><g class="dependency"><use href="#down-arrow" height="24" width="18.96" x="125.16" y="318"></use><text x="134.64" y="335.76">1</text></g><g class="dependency"><use href="#down-arrow" height="24" width="27.92" x="371.04" y="230"></use><text x="385" y="247.76">14</text></g><g class="item"><rect height="64" width="201.44" x="284.28" y="254"></rect><text x="385" y="279.76">run-tests-from-file-system</text><g class="dependency"><use href="#down-arrow" height="24" width="27.92" x="361.56" y="288"></use><text x="375.52" y="305.76">58</text></g><g class="dependency"><use href="#up-arrow" height="24" width="18.96" x="393.48" y="288"></use><text x="402.96" y="305.76">1</text></g></g><g class="dependency"><use href="#down-arrow" height="24" width="27.92" x="371.04" y="318"></use><text x="385" y="335.76">12</text></g><g class="dependency"><use href="#down-arrow" height="24" width="27.92" x="549.4" y="230"></use><text x="563.36" y="247.76">30</text></g><g class="item"><rect height="64" width="125.28" x="500.72" y="254"></rect><text x="563.36" y="279.76">test-harnesses</text><g class="dependency"><use href="#down-arrow" height="24" width="36.88" x="544.92" y="288"></use><text x="563.36" y="305.76">153</text></g></g><g class="dependency"><use href="#down-arrow" height="24" width="27.92" x="549.4" y="318"></use><text x="563.36" y="335.76">38</text></g><g class="dependency"><use href="#down-arrow" height="24" width="36.88" x="59.88" y="357"></use><text x="78.32" y="374.76">378</text></g><g class="item"><rect height="40" width="156.64" y="381"></rect><text x="78.32" y="406.76">3rd party packages</text></g><g class="dependency"><use href="#down-arrow" height="24" width="45.84" x="267.14" y="449"></use><text x="290.06" y="466.76">3106</text></g><g class="dependency"><use href="#up-arrow" height="24" width="27.92" x="316.98" y="449"></use><text x="330.94" y="466.76">37</text></g><g class="dependency"><use href="#right-arrow" height="24" width="17.96" x="348.9" y="449"></use><text x="356.38" y="466.76">4</text></g></svg>