<!-- created by Eunice for JavaScript (https://devsnicket.com/eunice) version 8.2.0 on 2022-08-23T20:25:39.465Z-->
<svg height="624" width="712.36" xmlns="http://www.w3.org/2000/svg"><defs><style type="text/css">text{font-family:arial;font-size:16px}g.anonymous&gt;text{font-style:italic}g.item&gt;rect{fill:lightgray}g.item&gt;text{text-anchor:middle}g.dependency&gt;text{fill:white;text-anchor:middle}</style></defs><symbol id="down-arrow" preserveAspectRatio="xMidYMax slice" viewBox="0,0,1,1"><polygon fill="darkgreen" points="0,0.85 0,0 1,0 1,0.85 0.5,1"></polygon></symbol><symbol id="right-arrow" preserveAspectRatio="xMaxYMid slice" viewBox="0,0,1,1"><polygon fill="darkred" points="0.85,0 0,0 0,1 0.85,1 1,0.5"></polygon></symbol><symbol id="up-arrow" preserveAspectRatio="xMidYMin slice" viewBox="0,0,1,1"><polygon fill="darkred" points="0,0.15 0,1 1,1 1,0.15 0.5,0"></polygon></symbol><g class="item"><rect height="64" width="88.8"></rect><text x="44.4" y="25.76">javascript</text><g class="dependency"><use href="#down-arrow" height="24" width="36.88" x="12" y="34"></use><text x="30.44" y="51.76">941</text></g><g class="dependency"><use href="#up-arrow" height="24" width="27.92" x="52.88" y="34"></use><text x="66.84" y="51.76">13</text></g></g><g class="dependency"><use href="#down-arrow" height="24" width="27.92" x="30.44" y="64"></use><text x="44.4" y="81.76">47</text></g><g class="dependency"><use href="#down-arrow" height="24" width="18.96" x="37.08" y="103"></use><text x="46.56" y="120.76">5</text></g><g class="item"><rect height="64" width="93.12" y="127"></rect><text x="46.56" y="152.76">interactive</text><g class="dependency"><use href="#down-arrow" height="24" width="36.88" x="18.64" y="161"></use><text x="37.08" y="178.76">307</text></g><g class="dependency"><use href="#up-arrow" height="24" width="18.96" x="59.52" y="161"></use><text x="69" y="178.76">5</text></g></g><g class="dependency"><use href="#down-arrow" height="24" width="27.92" x="32.6" y="191"></use><text x="46.56" y="208.76">28</text></g><g class="dependency"><use href="#down-arrow" height="24" width="18.96" x="33.88" y="230"></use><text x="43.36" y="247.76">2</text></g><g class="item"><rect height="64" width="86.72" y="254"></rect><text x="43.36" y="279.76">visualizer</text><g class="dependency"><use href="#down-arrow" height="24" width="36.88" x="24.92" y="288"></use><text x="43.36" y="305.76">302</text></g></g><g class="dependency"><use href="#down-arrow" height="24" width="18.96" x="33.88" y="318"></use><text x="43.36" y="335.76">5</text></g><g class="dependency"><use href="#down-arrow" height="24" width="18.96" x="73.8" y="357"></use><text x="83.28" y="374.76">4</text></g><g class="item"><rect height="64" width="166.56" y="381"></rect><text x="83.28" y="406.76">dependency-counter</text><g class="dependency"><use href="#down-arrow" height="24" width="27.92" x="59.84" y="415"></use><text x="73.8" y="432.76">59</text></g><g class="dependency"><use href="#up-arrow" height="24" width="18.96" x="91.76" y="415"></use><text x="101.24" y="432.76">1</text></g></g><g class="dependency"><use href="#down-arrow" height="24" width="18.96" x="73.8" y="445"></use><text x="83.28" y="462.76">5</text></g><g class="dependency"><use href="#down-arrow" height="24" width="18.96" x="247.2" y="357"></use><text x="256.68" y="374.76">2</text></g><g class="item"><rect height="64" width="150.24" x="181.56" y="381"></rect><text x="256.68" y="406.76">stacking-inference</text><g class="dependency"><use href="#down-arrow" height="24" width="27.92" x="233.24" y="415"></use><text x="247.2" y="432.76">46</text></g><g class="dependency"><use href="#up-arrow" height="24" width="18.96" x="265.16" y="415"></use><text x="274.64" y="432.76">4</text></g></g><g class="dependency"><use href="#down-arrow" height="24" width="18.96" x="247.2" y="445"></use><text x="256.68" y="462.76">3</text></g><g class="dependency"><use href="#down-arrow" height="24" width="27.92" x="89.8" y="484"></use><text x="103.76" y="501.76">24</text></g><g class="item"><rect height="64" width="207.52" y="508"></rect><text x="103.76" y="533.76">dependency-and-structure</text><g class="dependency"><use href="#down-arrow" height="24" width="36.88" x="75.84" y="542"></use><text x="94.28" y="559.76">573</text></g><g class="dependency"><use href="#up-arrow" height="24" width="18.96" x="116.72" y="542"></use><text x="126.2" y="559.76">9</text></g></g><g class="dependency"><use href="#down-arrow" height="24" width="27.92" x="309.28" y="484"></use><text x="323.24" y="501.76">15</text></g><g class="item"><rect height="64" width="201.44" x="222.52" y="508"></rect><text x="323.24" y="533.76">run-tests-from-file-system</text><g class="dependency"><use href="#down-arrow" height="24" width="27.92" x="299.8" y="542"></use><text x="313.76" y="559.76">58</text></g><g class="dependency"><use href="#up-arrow" height="24" width="18.96" x="331.72" y="542"></use><text x="341.2" y="559.76">1</text></g></g><g class="dependency"><use href="#down-arrow" height="24" width="18.96" x="496.04" y="484"></use><text x="505.52" y="501.76">6</text></g><g class="item"><rect height="64" width="133.12" x="438.96" y="508"></rect><text x="505.52" y="533.76">stacking-explicit</text><g class="dependency"><use href="#down-arrow" height="24" width="36.88" x="477.6" y="542"></use><text x="496.04" y="559.76">239</text></g><g class="dependency"><use href="#up-arrow" height="24" width="18.96" x="518.48" y="542"></use><text x="527.96" y="559.76">5</text></g></g><g class="dependency"><use href="#down-arrow" height="24" width="27.92" x="635.76" y="484"></use><text x="649.72" y="501.76">30</text></g><g class="item"><rect height="64" width="125.28" x="587.08" y="508"></rect><text x="649.72" y="533.76">test-harnesses</text><g class="dependency"><use href="#down-arrow" height="24" width="36.88" x="631.28" y="542"></use><text x="649.72" y="559.76">153</text></g></g><g class="dependency"><use href="#down-arrow" height="24" width="45.84" x="319.3" y="600"></use><text x="342.22" y="617.76">2766</text></g><g class="dependency"><use href="#up-arrow" height="24" width="27.92" x="369.14" y="600"></use><text x="383.1" y="617.76">38</text></g></svg>