<!-- created by Eunice (http://www.devsnicket.com/eunice) version 7.9.1 on 2020-07-28T06:45:40.830Z-->
<svg height="205" width="626" xmlns="http://www.w3.org/2000/svg"><defs><style type="text/css">text{font-family:arial;font-size:16px}g.anonymous&gt;text{font-style:italic}g.parent&gt;rect{fill:none;stroke:gray}g.item&gt;rect{fill:lightgray}g.item&gt;text{text-anchor:middle}g.dependency&gt;text{fill:white;text-anchor:middle}</style></defs><symbol id="down-arrow" preserveAspectRatio="xMidYMax slice" viewBox="0,0,1,1"><polygon fill="darkgreen" points="0,0.85 0,0 1,0 1,0.85 0.5,1"></polygon></symbol><symbol id="right-arrow" preserveAspectRatio="xMaxYMid slice" viewBox="0,0,1,1"><polygon fill="darkred" points="0.85,0 0,0 0,1 0.85,1 1,0.5"></polygon></symbol><symbol id="up-arrow" preserveAspectRatio="xMidYMin slice" viewBox="0,0,1,1"><polygon fill="darkred" points="0,0.15 0,1 1,1 1,0.15 0.5,0"></polygon></symbol><g class="item"><rect height="40" width="87.68"></rect><text x="43.84" y="25.76">javascript</text></g><g class="item"><rect height="40" width="153.6" y="55"></rect><text x="76.8" y="80.76">javascript-analyzer</text></g><g class="item"><rect height="40" width="112.8" x="168.6" y="55"></rect><text x="225" y="80.76">post analysis</text></g><g class="item"><rect height="40" width="98.4" x="296.4" y="55"></rect><text x="345.6" y="80.76">processors</text></g><g class="item"><rect height="40" width="269.28" y="110"></rect><text x="134.64" y="135.76">call-with-process-standard-streams</text></g><g class="item"><rect height="40" width="201.44" x="284.28" y="110"></rect><text x="385" y="135.76">run-tests-from-file-system</text></g><g class="item"><rect height="40" width="125.28" x="500.72" y="110"></rect><text x="563.36" y="135.76">test-harnesses</text></g><g class="item"><rect height="40" width="156.64" y="165"></rect><text x="78.32" y="190.76">3rd party packages</text></g></svg>