<svg height="20" version="1.1" viewBox="0 0 92 92" width="20" xmlns="http://www.w3.org/2000/svg"><path d="M 90.155 41.965 L 50.036 1.847 C 47.726 -0.464 43.979 -0.464 41.667 1.847 L 33.336 10.179 L 43.904 20.747 C 46.36 19.917 49.176 20.474 51.133 22.431 C 53.102 24.401 53.654 27.241 52.803 29.706 L 62.989 39.891 C 65.454 39.041 68.295 39.59 70.264 41.562 C 73.014 44.311 73.014 48.768 70.264 51.519 C 67.512 54.271 63.056 54.271 60.303 51.519 C 58.235 49.449 57.723 46.409 58.772 43.861 L 49.272 34.362 L 49.272 59.358 C 49.942 59.69 50.575 60.133 51.133 60.69 C 53.883 63.44 53.883 67.896 51.133 70.65 C 48.383 73.399 43.924 73.399 41.176 70.65 C 38.426 67.896 38.426 63.44 41.176 60.69 C 41.856 60.011 42.643 59.497 43.483 59.153 L 43.483 33.925 C 42.643 33.582 41.858 33.072 41.176 32.389 C 39.093 30.307 38.592 27.249 39.661 24.691 L 29.243 14.271 L 1.733 41.779 C -0.578 44.092 -0.578 47.839 1.733 50.15 L 41.854 90.268 C 44.164 92.578 47.91 92.578 50.223 90.268 L 90.155 50.336 C 92.466 48.025 92.466 44.275 90.155 41.965" fill-rule="evenodd" /></svg>